<svg width="32" height="32" viewBox="0 0 32 32" fill="none" xmlns="http://www.w3.org/2000/svg">
<path d="M17.44 26.9867C15.6258 26.9883 13.8378 26.5539 12.2267 25.72C12.1487 25.6797 12.0795 25.6245 12.0229 25.5575C11.9664 25.4905 11.9235 25.413 11.8969 25.3294C11.8703 25.2458 11.8604 25.1578 11.8678 25.0704C11.8752 24.983 11.8997 24.8979 11.94 24.82C11.9803 24.7421 12.0355 24.6729 12.1025 24.6163C12.1695 24.5597 12.247 24.5169 12.3306 24.4903C12.4142 24.4637 12.5022 24.4538 12.5896 24.4611C12.677 24.4685 12.7621 24.4931 12.84 24.5333C14.998 25.6312 17.4804 25.9111 19.8286 25.3214C22.1769 24.7316 24.2325 23.3121 25.6157 21.3249C26.999 19.3377 27.6164 16.9171 27.354 14.5102C27.0917 12.1032 25.9672 9.87249 24.1883 8.22999C22.4094 6.58749 20.0963 5.64415 17.6761 5.5742C15.2559 5.50424 12.8921 6.3124 11.0214 7.84941C9.15058 9.38643 7.89915 11.5485 7.49819 13.9363C7.09724 16.324 7.57384 18.7762 8.83999 20.84C8.9293 20.9927 8.95559 21.1742 8.91327 21.346C8.87095 21.5178 8.76335 21.6663 8.61332 21.76C8.53815 21.806 8.45462 21.8366 8.36755 21.8501C8.28047 21.8636 8.19159 21.8596 8.10604 21.8386C8.02049 21.8175 7.93997 21.7797 7.86913 21.7273C7.79829 21.6749 7.73853 21.609 7.69332 21.5333C6.23013 19.1902 5.67309 16.3934 6.12691 13.6685C6.58073 10.9436 8.01416 8.47825 10.1578 6.73584C12.3014 4.99344 15.0076 4.09394 17.7677 4.20643C20.5279 4.31891 23.1519 5.43562 25.1467 7.34668C26.6871 8.77448 27.8005 10.6023 28.3625 12.6261C28.9246 14.6498 28.9131 16.79 28.3295 18.8077C27.746 20.8254 26.6131 22.6412 25.0576 24.0525C23.502 25.4637 21.5848 26.415 19.52 26.8C18.8341 26.9277 18.1377 26.9902 17.44 26.9867Z" fill="#95E1D3"/>
<path d="M7.09333 27.68C6.83486 27.6751 6.58158 27.6066 6.35589 27.4806C6.13019 27.3545 5.93903 27.1748 5.7993 26.9573C5.65958 26.7398 5.5756 26.4912 5.55479 26.2336C5.53398 25.9759 5.57698 25.7171 5.67999 25.48L7.70666 20.92C7.7821 20.7584 7.91801 20.6328 8.08512 20.5705C8.25222 20.5081 8.43712 20.5139 8.59999 20.5866C8.76066 20.6594 8.88595 20.7928 8.94842 20.9578C9.0109 21.1227 9.00547 21.3057 8.93333 21.4666L6.89333 26.0266C6.86736 26.0613 6.85333 26.1034 6.85333 26.1466C6.85333 26.1899 6.86736 26.232 6.89333 26.2666C6.92245 26.3 6.9607 26.324 7.00335 26.3359C7.046 26.3477 7.09118 26.3468 7.13333 26.3333L12.2667 24.5066C12.3488 24.475 12.4365 24.4603 12.5245 24.4635C12.6124 24.4666 12.6988 24.4875 12.7785 24.5248C12.8582 24.5622 12.9296 24.6153 12.9882 24.6809C13.0469 24.7465 13.0917 24.8233 13.12 24.9066C13.18 25.0728 13.1716 25.2561 13.0966 25.4161C13.0216 25.5761 12.8862 25.6998 12.72 25.76L7.62666 27.5866C7.45605 27.65 7.27531 27.6816 7.09333 27.68Z" fill="#95E1D3"/>
</svg>
