<svg width="32" height="32" viewBox="0 0 32 32" fill="none" xmlns="http://www.w3.org/2000/svg">
<path d="M30.3333 16.7733C30.3364 16.9181 30.2893 17.0594 30.2 17.1733L23.3733 26.3067C23.3112 26.3904 23.231 26.4591 23.1387 26.5076C23.0463 26.5561 22.9442 26.5831 22.84 26.5867H9.17335C9.06684 26.5851 8.96212 26.5591 8.86732 26.5105C8.77251 26.4619 8.69017 26.3922 8.62668 26.3067L1.80001 17.1733C1.71547 17.0571 1.66992 16.9171 1.66992 16.7733C1.66992 16.6296 1.71547 16.4896 1.80001 16.3733L8.62668 7.24C8.69085 7.15617 8.77365 7.08843 8.86854 7.04214C8.96342 6.99586 9.06778 6.9723 9.17335 6.97334H22.84C22.9433 6.97435 23.0451 6.99889 23.1375 7.04509C23.2299 7.0913 23.3106 7.15796 23.3733 7.24L30.2 16.3733C30.2874 16.4883 30.3343 16.6289 30.3333 16.7733ZM22.5067 25.2533L28.84 16.7733L22.5067 8.30667H9.50668L3.16001 16.7733L9.50668 25.2533H22.5067Z" fill="#95E1D3"/>
<path d="M22.7733 16.7734C22.7764 16.9182 22.7293 17.0595 22.64 17.1734L19.5867 21.2668C19.5239 21.3488 19.4432 21.4155 19.3508 21.4617C19.2584 21.5079 19.1566 21.5324 19.0533 21.5334H12.9467C12.8434 21.5324 12.7416 21.5079 12.6492 21.4617C12.5568 21.4155 12.4761 21.3488 12.4133 21.2668L9.33333 17.1734C9.24245 17.0599 9.19293 16.9189 9.19293 16.7734C9.19293 16.628 9.24245 16.487 9.33333 16.3734L12.3867 12.2934C12.4472 12.2091 12.5275 12.1407 12.6204 12.0942C12.7133 12.0477 12.8161 12.0246 12.92 12.0268H19.0267C19.1305 12.0246 19.2334 12.0477 19.3263 12.0942C19.4192 12.1407 19.4994 12.2091 19.56 12.2934L22.6667 16.3734C22.7446 16.4917 22.7821 16.6321 22.7733 16.7734ZM18.6667 20.2001L21.3333 16.7734L18.6667 13.3334H13.3333L10.6667 16.7734L13.3333 20.2001H18.6667Z" fill="#95E1D3"/>
</svg>
