<svg width="42" height="42" viewBox="0 0 42 42" fill="none" xmlns="http://www.w3.org/2000/svg">
<path d="M20.685 20.265C19.5566 20.265 18.4536 19.9304 17.5155 19.3035C16.5773 18.6766 15.846 17.7856 15.4143 16.7432C14.9825 15.7007 14.8695 14.5537 15.0896 13.447C15.3097 12.3403 15.8531 11.3238 16.6509 10.5259C17.4488 9.72808 18.4653 9.18473 19.572 8.9646C20.6787 8.74447 21.8257 8.85745 22.8682 9.28925C23.9106 9.72105 24.8016 10.4523 25.4285 11.3905C26.0554 12.3286 26.39 13.4316 26.39 14.56C26.39 16.073 25.7889 17.5241 24.719 18.594C23.6491 19.6639 22.198 20.265 20.685 20.265ZM20.685 10.605C19.9028 10.605 19.1381 10.8369 18.4877 11.2715C17.8373 11.7061 17.3304 12.3238 17.031 13.0465C16.7317 13.7692 16.6534 14.5644 16.806 15.3316C16.9586 16.0988 17.3353 16.8035 17.8884 17.3566C18.4415 17.9097 19.1462 18.2864 19.9134 18.439C20.6806 18.5916 21.4758 18.5133 22.1985 18.2139C22.9212 17.9146 23.5389 17.4077 23.9734 16.7573C24.408 16.1069 24.64 15.3422 24.64 14.56C24.64 13.5111 24.2233 12.5051 23.4816 11.7634C22.7399 11.0217 21.7339 10.605 20.685 10.605Z" fill="#F38281"/>
<path d="M30.555 17.3949H30.415C30.2001 17.3408 30.013 17.2088 29.8901 17.0244C29.7672 16.84 29.7172 16.6165 29.75 16.3974V16.1174C29.7558 15.995 29.7558 15.8723 29.75 15.7499C29.7672 15.5695 29.7672 15.3878 29.75 15.2074C29.75 14.7524 29.75 14.5249 29.75 14.5249C29.75 12.1718 28.8152 9.915 27.1513 8.25109C25.4874 6.58717 23.2306 5.65239 20.8775 5.65239C18.5244 5.65239 16.2676 6.58717 14.6037 8.25109C12.9398 9.915 12.005 12.1718 12.005 14.5249C12.005 14.5249 12.005 14.7524 12.005 15.0849C12.0538 15.3173 12.1363 15.5414 12.25 15.7499V16.1874V16.4674C12.2672 16.5823 12.2617 16.6995 12.2336 16.8122C12.2056 16.925 12.1556 17.0311 12.0865 17.1246C12.0175 17.218 11.9307 17.2969 11.8311 17.3568C11.7315 17.4167 11.6212 17.4564 11.5063 17.4736C11.3913 17.4909 11.2742 17.4853 11.1614 17.4573C11.0487 17.4292 10.9425 17.3792 10.8491 17.3102C10.7557 17.2411 10.6767 17.1543 10.6168 17.0548C10.5569 16.9552 10.5172 16.8448 10.5 16.7299V16.0999C10.4696 15.8149 10.4696 15.5274 10.5 15.2424V14.6999C10.5 11.8826 11.6192 9.18076 13.6113 7.18865C15.6034 5.19655 18.3052 4.07739 21.1225 4.07739C23.9398 4.07739 26.6416 5.19655 28.6337 7.18865C30.6259 9.18076 31.745 11.8826 31.745 14.6999C31.745 14.6999 31.745 14.9974 31.745 15.3474C31.7418 15.6353 31.7125 15.9223 31.6575 16.2049L31.5 16.6599C31.4694 16.8814 31.3535 17.0823 31.177 17.2196C31.0005 17.3569 30.7773 17.4198 30.555 17.3949Z" fill="#F38281"/>
<path d="M21 38.0623C20.8852 38.0637 20.7715 38.0411 20.666 37.9959C20.5605 37.9507 20.4656 37.8839 20.3875 37.7998C11.1125 28.5248 10.5 15.1548 10.3775 14.5948C10.3728 14.4799 10.3908 14.3652 10.4305 14.2572C10.4702 14.1492 10.5308 14.0502 10.6088 13.9656C10.6868 13.8811 10.7808 13.8128 10.8852 13.7646C10.9896 13.7164 11.1026 13.6893 11.2175 13.6848C11.3324 13.6801 11.4472 13.6981 11.5551 13.7378C11.6631 13.7775 11.7621 13.8381 11.8467 13.9161C11.9312 13.9941 11.9995 14.0881 12.0477 14.1925C12.0959 14.297 12.123 14.4099 12.1275 14.5248C12.1275 14.6473 12.845 27.7898 21.6125 36.5748C21.6962 36.6534 21.7629 36.7482 21.8085 36.8536C21.8541 36.9589 21.8777 37.0725 21.8777 37.1873C21.8777 37.3021 21.8541 37.4157 21.8085 37.521C21.7629 37.6264 21.6962 37.7213 21.6125 37.7998C21.5344 37.8839 21.4395 37.9507 21.334 37.9959C21.2285 38.0411 21.1148 38.0637 21 38.0623Z" fill="#F38281"/>
<path d="M21 38.0625C20.8852 38.0639 20.7715 38.0413 20.666 37.9961C20.5605 37.9508 20.4656 37.8841 20.3875 37.8C20.3038 37.7214 20.2371 37.6266 20.1915 37.5212C20.1459 37.4159 20.1223 37.3023 20.1223 37.1875C20.1223 37.0727 20.1459 36.9591 20.1915 36.8538C20.2371 36.7484 20.3038 36.6536 20.3875 36.575C29.1375 27.825 29.855 14.6475 29.8725 14.525C29.8663 14.4069 29.8862 14.289 29.9308 14.1795C29.9754 14.07 30.0435 13.9716 30.1304 13.8915C30.2173 13.8113 30.3207 13.7512 30.4334 13.7155C30.5461 13.6798 30.6653 13.6694 30.7825 13.685C31.013 13.6985 31.2294 13.8009 31.386 13.9706C31.5427 14.1403 31.6274 14.3641 31.6225 14.595C31.6225 15.155 30.8875 28.595 21.6125 37.8C21.5344 37.8841 21.4395 37.9508 21.334 37.9961C21.2285 38.0413 21.1148 38.0639 21 38.0625Z" fill="#F38281"/>
</svg>
