<svg width="42" height="42" viewBox="0 0 42 42" fill="none" xmlns="http://www.w3.org/2000/svg">
<path d="M21 26.3724C19.9374 26.3724 18.8987 26.0574 18.0152 25.467C17.1317 24.8767 16.4431 24.0376 16.0365 23.0559C15.6298 22.0742 15.5234 20.994 15.7307 19.9518C15.938 18.9097 16.4497 17.9524 17.2011 17.201C17.9524 16.4497 18.9097 15.938 19.9519 15.7307C20.994 15.5234 22.0743 15.6298 23.056 16.0364C24.0377 16.443 24.8767 17.1316 25.4671 18.0151C26.0574 18.8986 26.3725 19.9374 26.3725 20.9999C26.3679 22.4234 25.8004 23.7872 24.7938 24.7938C23.7873 25.8003 22.4235 26.3678 21 26.3724ZM21 17.3774C20.2835 17.3774 19.5832 17.5899 18.9875 17.9879C18.3917 18.386 17.9274 18.9517 17.6533 19.6137C17.3791 20.2756 17.3073 21.004 17.4471 21.7067C17.5869 22.4094 17.9319 23.0548 18.4385 23.5614C18.9451 24.0681 19.5906 24.4131 20.2933 24.5528C20.996 24.6926 21.7244 24.6209 22.3863 24.3467C23.0482 24.0725 23.614 23.6082 24.012 23.0125C24.41 22.4168 24.6225 21.7164 24.6225 20.9999C24.6225 20.0392 24.2409 19.1178 23.5615 18.4385C22.8821 17.7591 21.9608 17.3774 21 17.3774Z" fill="#95E1D3"/>
<path d="M21 32.375C18.7502 32.375 16.551 31.7079 14.6804 30.458C12.8098 29.2081 11.3518 27.4315 10.4909 25.353C9.62993 23.2745 9.40467 20.9874 9.84357 18.7809C10.2825 16.5743 11.3658 14.5475 12.9567 12.9567C14.5475 11.3658 16.5743 10.2825 18.7809 9.84357C20.9874 9.40467 23.2745 9.62993 25.353 10.4909C27.4315 11.3518 29.2081 12.8098 30.458 14.6804C31.7079 16.551 32.375 18.7502 32.375 21C32.375 24.0168 31.1766 26.9101 29.0433 29.0433C26.9101 31.1766 24.0168 32.375 21 32.375V32.375ZM21 11.375C19.0964 11.375 17.2355 11.9395 15.6526 12.9971C14.0698 14.0547 12.8362 15.5579 12.1077 17.3167C11.3792 19.0754 11.1886 21.0107 11.5599 22.8777C11.9313 24.7448 12.848 26.4598 14.1941 27.8059C15.5402 29.152 17.2552 30.0687 19.1223 30.4401C20.9893 30.8114 22.9246 30.6208 24.6833 29.8923C26.4421 29.1638 27.9453 27.9302 29.0029 26.3474C30.0605 24.7645 30.625 22.9036 30.625 21C30.6204 18.4487 29.6048 16.0032 27.8008 14.1992C25.9968 12.3952 23.5513 11.3796 21 11.375Z" fill="#95E1D3"/>
<path d="M21 38.3774C17.5631 38.3774 14.2033 37.3583 11.3456 35.4488C8.48787 33.5393 6.26055 30.8253 4.94529 27.65C3.63003 24.4747 3.28589 20.9807 3.95641 17.6098C4.62692 14.2389 6.28197 11.1425 8.71226 8.7122C11.1425 6.28191 14.2389 4.62686 17.6098 3.95635C20.9807 3.28583 24.4748 3.62997 27.6501 4.94523C30.8254 6.26049 33.5394 8.48781 35.4489 11.3455C37.3583 14.2032 38.3775 17.563 38.3775 20.9999C38.3729 25.6073 36.5405 30.0247 33.2826 33.2826C30.0247 36.5405 25.6074 38.3728 21 38.3774V38.3774ZM21 5.37244C17.9092 5.37244 14.8878 6.28898 12.3178 8.00615C9.7479 9.72332 7.74489 12.164 6.56208 15.0196C5.37927 17.8751 5.06979 21.0173 5.67278 24.0487C6.27577 27.0802 7.76415 29.8647 9.94969 32.0503C12.1352 34.2358 14.9198 35.7242 17.9512 36.3272C20.9827 36.9302 24.1248 36.6207 26.9804 35.4379C29.8359 34.2551 32.2766 32.252 33.9938 29.6821C35.711 27.1122 36.6275 24.0908 36.6275 20.9999C36.6275 18.9477 36.2233 16.9156 35.4379 15.0196C34.6526 13.1235 33.5015 11.4008 32.0503 9.94963C30.5992 8.49848 28.8764 7.34737 26.9804 6.56202C25.0844 5.77666 23.0522 5.37244 21 5.37244V5.37244Z" fill="#95E1D3"/>
</svg>
