<svg width="38" height="37" viewBox="0 0 38 37" fill="none" xmlns="http://www.w3.org/2000/svg">
<path d="M19 36.5925C18.367 36.5938 17.7414 36.4566 17.167 36.1906C16.5926 35.9246 16.0834 35.5361 15.675 35.0525L14.135 33.3025C13.8736 32.9951 13.5452 32.7518 13.1751 32.591C12.8051 32.4302 12.4031 32.3563 12 32.375L9.65501 32.585C9.02268 32.6378 8.38644 32.5523 7.79041 32.3347C7.19438 32.117 6.65284 31.7723 6.20332 31.3245C5.75381 30.8766 5.4071 30.3364 5.18723 29.7411C4.96735 29.1459 4.87958 28.51 4.93001 27.8775L5.00001 25.48C5.03259 25.0651 4.96539 24.6484 4.80403 24.2648C4.64268 23.8812 4.39185 23.5418 4.07251 23.275L2.32251 21.7525C1.83656 21.3435 1.44591 20.8331 1.17791 20.2573C0.909918 19.6814 0.771057 19.0539 0.771057 18.4187C0.771057 17.7836 0.909918 17.1561 1.17791 16.5802C1.44591 16.0043 1.83656 15.494 2.32251 15.085L4.07251 13.545C4.38469 13.2799 4.63099 12.9459 4.79195 12.5693C4.95292 12.1927 5.02414 11.7838 5.00001 11.375L4.82501 8.97748C4.77224 8.34515 4.85765 7.70891 5.07531 7.11288C5.29297 6.51686 5.63768 5.97531 6.08553 5.5258C6.53337 5.07629 7.07364 4.72957 7.66885 4.5097C8.26407 4.28983 8.89999 4.20206 9.53251 4.25248L11.895 4.37498C12.3041 4.41602 12.7171 4.35973 13.1004 4.2107C13.4836 4.06168 13.8261 3.82414 14.1 3.51748L15.6225 1.76748C16.0306 1.26514 16.5454 0.860006 17.1297 0.581517C17.7139 0.303027 18.3528 0.158173 19 0.15748V0.15748C19.633 0.156163 20.2586 0.293328 20.833 0.559357C21.4074 0.825386 21.9166 1.21384 22.325 1.69748V1.69748L23.865 3.44748C24.1281 3.7528 24.4568 3.99479 24.8264 4.15538C25.1961 4.31598 25.5973 4.39104 26 4.37498L28.345 4.16498C28.9773 4.11221 29.6136 4.19762 30.2096 4.41528C30.8056 4.63295 31.3472 4.97765 31.7967 5.4255C32.2462 5.87334 32.5929 6.41361 32.8128 7.00882C33.0327 7.60404 33.1204 8.23996 33.07 8.87248L33 11.27C32.9674 11.6849 33.0346 12.1015 33.196 12.4851C33.3573 12.8687 33.6082 13.2081 33.9275 13.475L35.6775 14.9975C36.1635 15.4065 36.5541 15.9168 36.8221 16.4927C37.0901 17.0686 37.229 17.6961 37.229 18.3312C37.229 18.9664 37.0901 19.5939 36.8221 20.1698C36.5541 20.7456 36.1635 21.256 35.6775 21.665L33.9275 23.205C33.6153 23.4701 33.369 23.8041 33.2081 24.1807C33.0471 24.5573 32.9759 24.9661 33 25.375L33.21 27.7375C33.2628 28.3698 33.1774 29.006 32.9597 29.6021C32.742 30.1981 32.3973 30.7397 31.9495 31.1892C31.5016 31.6387 30.9614 31.9854 30.3662 32.2053C29.7709 32.4251 29.135 32.5129 28.5025 32.4625L26.105 32.375C25.6903 32.3438 25.2741 32.4117 24.8907 32.573C24.5074 32.7342 24.1678 32.9843 23.9 33.3025L22.3775 35.0525C21.97 35.5384 21.4614 35.9295 20.8871 36.1985C20.3128 36.4675 19.6867 36.608 19.0525 36.61L19 36.5925ZM12.175 30.625C12.808 30.6237 13.4336 30.7608 14.008 31.0269C14.5824 31.2929 15.0916 31.6813 15.5 32.165L17.04 33.915C17.2833 34.2075 17.5884 34.4424 17.9334 34.6028C18.2783 34.7631 18.6546 34.845 19.035 34.8425V34.8425C19.417 34.8394 19.794 34.7551 20.141 34.5951C20.488 34.4352 20.797 34.2034 21.0475 33.915L22.57 32.165C23.0112 31.6288 23.5765 31.2084 24.2169 30.94C24.8572 30.6717 25.5534 30.5635 26.245 30.625L28.6075 30.8C28.9859 30.8349 29.3674 30.7855 29.7244 30.6554C30.0815 30.5252 30.4053 30.3176 30.6725 30.0475C30.9411 29.7755 31.1475 29.4484 31.2774 29.0889C31.4073 28.7293 31.4577 28.3459 31.425 27.965L31.25 25.5675C31.186 24.8764 31.2893 24.18 31.5513 23.5373C31.8133 22.8946 32.2261 22.3244 32.755 21.875L34.505 20.335C34.7994 20.0989 35.0382 19.8009 35.2045 19.4622C35.3709 19.1234 35.4606 18.7523 35.4675 18.375C35.4644 17.993 35.3801 17.616 35.2202 17.269C35.0603 16.922 34.8284 16.613 34.54 16.3625L32.79 14.84C32.2499 14.3944 31.8271 13.8232 31.5586 13.1765C31.2902 12.5298 31.1842 11.8271 31.25 11.13L31.425 8.76748C31.4587 8.38916 31.4087 8.00806 31.2787 7.6512C31.1486 7.29434 30.9417 6.97045 30.6725 6.70248C30.4012 6.43291 30.0742 6.22588 29.7145 6.0959C29.3548 5.96592 28.971 5.91612 28.59 5.94998L26.1925 6.12498C25.501 6.1935 24.8033 6.09223 24.1598 5.82996C23.5163 5.56769 22.9466 5.15235 22.5 4.61998L20.96 2.86998C20.7239 2.57561 20.4259 2.33679 20.0872 2.17045C19.7485 2.00412 19.3773 1.91434 19 1.90748V1.90748C18.618 1.9106 18.241 1.99491 17.894 2.15482C17.5471 2.31472 17.2381 2.54657 16.9875 2.83498L15.465 4.58498C15.0184 5.12394 14.4471 5.54587 13.8006 5.81422C13.1542 6.08257 12.452 6.18923 11.755 6.12498L9.39251 5.94998C9.01419 5.91632 8.63309 5.96629 8.27623 6.09633C7.91937 6.22637 7.59548 6.43331 7.32751 6.70248C7.05176 6.98038 6.8412 7.31609 6.71106 7.68532C6.58092 8.05455 6.53445 8.44809 6.57501 8.83748L6.75001 11.1825C6.81402 11.8736 6.71068 12.5699 6.44872 13.2126C6.18676 13.8554 5.77388 14.4255 5.24501 14.875L3.49501 16.415C3.20064 16.6511 2.96182 16.9491 2.79548 17.2878C2.62914 17.6265 2.53936 17.9977 2.53251 18.375C2.53563 18.757 2.61994 19.134 2.77984 19.481C2.93975 19.8279 3.1716 20.1369 3.46001 20.3875L5.21001 21.91C5.75014 22.3556 6.17291 22.9267 6.44137 23.5735C6.70982 24.2202 6.81579 24.9228 6.75001 25.62L6.57501 27.9825C6.54135 28.3608 6.59131 28.7419 6.72136 29.0988C6.8514 29.4556 7.05834 29.7795 7.32751 30.0475C7.59884 30.3171 7.92581 30.5241 8.28553 30.6541C8.64525 30.784 9.02903 30.8338 9.41001 30.8L11.8075 30.625H12.175Z" fill="#95E1D3"/>
<path d="M19 24.5C17.3755 24.5 15.8176 23.8547 14.669 22.706C13.5203 21.5574 12.875 19.9995 12.875 18.375C12.875 16.7505 13.5203 15.1926 14.669 14.044C15.8176 12.8953 17.3755 12.25 19 12.25V12.25C20.6245 12.25 22.1824 12.8953 23.331 14.044C24.4797 15.1926 25.125 16.7505 25.125 18.375C25.125 19.9995 24.4797 21.5574 23.331 22.706C22.1824 23.8547 20.6245 24.5 19 24.5ZM19 14C17.8397 14 16.7269 14.4609 15.9064 15.2814C15.0859 16.1019 14.625 17.2147 14.625 18.375C14.625 19.5353 15.0859 20.6481 15.9064 21.4686C16.7269 22.2891 17.8397 22.75 19 22.75C20.1603 22.75 21.2731 22.2891 22.0936 21.4686C22.9141 20.6481 23.375 19.5353 23.375 18.375C23.375 17.2147 22.9141 16.1019 22.0936 15.2814C21.2731 14.4609 20.1603 14 19 14V14Z" fill="#95E1D3"/>
</svg>
