<svg width="70" height="70" viewBox="0 0 70 70" fill="none" xmlns="http://www.w3.org/2000/svg">
<path d="M11.6666 59.7917C11.3649 59.7903 11.0704 59.6989 10.8208 59.5292C10.6069 59.4092 10.4274 59.2362 10.2997 59.0267C10.172 58.8173 10.1003 58.5785 10.0916 58.3334V17.5C10.0896 17.2038 10.1778 16.9139 10.3445 16.669C10.5112 16.4241 10.7486 16.2358 11.025 16.1292L25.9291 10.2959C26.2692 10.1781 26.6391 10.1781 26.9791 10.2959L41.125 15.8375L58.0125 10.2959C58.2302 10.213 58.4656 10.1883 58.6958 10.2241C58.9259 10.2599 59.1427 10.355 59.325 10.5C59.5096 10.6325 59.6592 10.808 59.7608 11.0113C59.8624 11.2145 59.9131 11.4395 59.9083 11.6667V52.5C59.9105 52.8043 59.8155 53.1014 59.6371 53.348C59.4588 53.5945 59.2064 53.7777 58.9166 53.8709L41.4166 59.7042C41.0962 59.82 40.7454 59.82 40.425 59.7042L26.425 54.1917L12.075 59.7042C11.9431 59.7504 11.8059 59.7798 11.6666 59.7917ZM26.5417 51.0417C26.7238 50.9983 26.9136 50.9983 27.0958 51.0417L40.8333 56.7875L56.9625 51.3334V13.6792L41.5041 18.7542C41.1837 18.87 40.8329 18.87 40.5125 18.7542L26.425 13.2417L13.0083 18.375V56.2917L25.9291 51.3625C26.0718 51.2489 26.2437 51.1781 26.425 51.1584L26.5417 51.0417Z" fill="#95E1D3"/>
<path d="M26.425 54.0749C26.0382 54.0749 25.6673 53.9213 25.3938 53.6478C25.1203 53.3743 24.9667 53.0034 24.9667 52.6166V11.6666C24.9667 11.2798 25.1203 10.9089 25.3938 10.6354C25.6673 10.3619 26.0382 10.2083 26.425 10.2083C26.8118 10.2083 27.1827 10.3619 27.4562 10.6354C27.7297 10.9089 27.8833 11.2798 27.8833 11.6666V52.4999C27.8995 52.701 27.8737 52.9033 27.8077 53.0939C27.7417 53.2845 27.6368 53.4594 27.4998 53.6074C27.3627 53.7554 27.1964 53.8734 27.0114 53.9539C26.8264 54.0343 26.6267 54.0756 26.425 54.0749Z" fill="#95E1D3"/>
<path d="M41.0958 59.7917C40.7091 59.7917 40.3381 59.6381 40.0646 59.3646C39.7912 59.0911 39.6375 58.7202 39.6375 58.3334V17.5001C39.6375 17.1133 39.7912 16.7424 40.0646 16.4689C40.3381 16.1954 40.7091 16.0417 41.0958 16.0417C41.4826 16.0417 41.8536 16.1954 42.127 16.4689C42.4005 16.7424 42.5542 17.1133 42.5542 17.5001V58.3334C42.5542 58.7202 42.4005 59.0911 42.127 59.3646C41.8536 59.6381 41.4826 59.7917 41.0958 59.7917Z" fill="#95E1D3"/>
</svg>
