<svg width="70" height="70" viewBox="0 0 70 70" fill="none" xmlns="http://www.w3.org/2000/svg">
<path d="M26.6875 32.0832H12.1042C10.8096 32.0832 9.5677 31.571 8.64961 30.6583C7.73152 29.7457 7.21187 28.5068 7.20416 27.2123V12.629C7.21182 11.3318 7.73052 10.0899 8.6478 9.17264C9.56507 8.25536 10.807 7.73666 12.1042 7.729H26.6875C27.9847 7.73666 29.2266 8.25536 30.1439 9.17264C31.0611 10.0899 31.5798 11.3318 31.5875 12.629V27.2123C31.5798 28.5068 31.0601 29.7457 30.142 30.6583C29.224 31.571 27.982 32.0832 26.6875 32.0832ZM12.1042 10.6165C11.5805 10.624 11.0804 10.8354 10.7101 11.2057C10.3397 11.5761 10.1284 12.0762 10.1208 12.5998V27.1832C10.1208 27.7092 10.3298 28.2137 10.7017 28.5856C11.0737 28.9575 11.5782 29.1665 12.1042 29.1665H26.6875C27.2135 29.1665 27.718 28.9575 28.0899 28.5856C28.4619 28.2137 28.6708 27.7092 28.6708 27.1832V12.5998C28.6633 12.0762 28.4519 11.5761 28.0816 11.2057C27.7113 10.8354 27.2112 10.624 26.6875 10.6165H12.1042Z" fill="#95E1D3"/>
<path d="M57.8958 32.0833H43.3125C42.0129 32.0833 40.7666 31.567 39.8477 30.6481C38.9287 29.7292 38.4125 28.4828 38.4125 27.1833V12.6C38.4201 11.3028 38.9388 10.0609 39.8561 9.14358C40.7734 8.22631 42.0153 7.7076 43.3125 7.69995H57.8958C59.193 7.7076 60.4349 8.22631 61.3522 9.14358C62.2695 10.0609 62.7882 11.3028 62.7958 12.6V27.1833C62.7958 28.4828 62.2796 29.7292 61.3606 30.6481C60.4417 31.567 59.1954 32.0833 57.8958 32.0833ZM43.3125 10.6166C42.7888 10.6242 42.2887 10.8355 41.9184 11.2059C41.5481 11.5762 41.3367 12.0763 41.3291 12.6V27.1833C41.3291 27.7093 41.5381 28.2138 41.91 28.5857C42.282 28.9577 42.7865 29.1666 43.3125 29.1666H57.8958C58.4218 29.1666 58.9263 28.9577 59.2982 28.5857C59.6702 28.2138 59.8791 27.7093 59.8791 27.1833V12.6C59.8716 12.0763 59.6602 11.5762 59.2899 11.2059C58.9196 10.8355 58.4195 10.6242 57.8958 10.6166H43.3125Z" fill="#95E1D3"/>
<path d="M26.6875 62.2707H12.1042C10.807 62.263 9.56507 61.7443 8.6478 60.827C7.73052 59.9098 7.21182 58.6679 7.20416 57.3707V42.7873C7.21187 41.4928 7.73152 40.254 8.64961 39.3414C9.5677 38.4287 10.8096 37.9165 12.1042 37.9165H26.6875C27.9871 37.9165 29.2334 38.4328 30.1523 39.3517C31.0712 40.2706 31.5875 41.5169 31.5875 42.8165V57.3998C31.5722 58.692 31.0502 59.9264 30.1337 60.8374C29.2172 61.7484 27.9797 62.2631 26.6875 62.2707ZM12.1042 40.8332C11.5782 40.8332 11.0737 41.0421 10.7017 41.4141C10.3298 41.786 10.1208 42.2905 10.1208 42.8165V57.3998C10.1284 57.9235 10.3397 58.4236 10.7101 58.7939C11.0804 59.1643 11.5805 59.3756 12.1042 59.3832H26.6875C27.2112 59.3756 27.7113 59.1643 28.0816 58.7939C28.4519 58.4236 28.6633 57.9235 28.6708 57.3998V42.8165C28.6708 42.2905 28.4619 41.786 28.0899 41.4141C27.718 41.0421 27.2135 40.8332 26.6875 40.8332H12.1042Z" fill="#95E1D3"/>
<path d="M57.8958 62.2707H43.3125C42.0153 62.263 40.7734 61.7443 39.8561 60.827C38.9388 59.9098 38.4201 58.6679 38.4125 57.3707V42.7873C38.4202 41.4928 38.9398 40.254 39.8579 39.3414C40.776 38.4287 42.018 37.9165 43.3125 37.9165H57.8958C59.1954 37.9165 60.4417 38.4328 61.3606 39.3517C62.2796 40.2706 62.7958 41.5169 62.7958 42.8165V57.3998C62.7805 58.692 62.2585 59.9264 61.342 60.8374C60.4256 61.7484 59.188 62.2631 57.8958 62.2707ZM43.3125 40.804C42.7865 40.804 42.282 41.013 41.91 41.3849C41.5381 41.7569 41.3291 42.2613 41.3291 42.7873V57.3707C41.3367 57.8943 41.5481 58.3944 41.9184 58.7648C42.2887 59.1351 42.7888 59.3465 43.3125 59.354H57.8958C58.4195 59.3465 58.9196 59.1351 59.2899 58.7648C59.6602 58.3944 59.8716 57.8943 59.8791 57.3707V42.7873C59.8791 42.2613 59.6702 41.7569 59.2982 41.3849C58.9263 41.013 58.4218 40.804 57.8958 40.804H43.3125Z" fill="#95E1D3"/>
</svg>
