<svg width="70" height="70" viewBox="0 0 70 70" fill="none" xmlns="http://www.w3.org/2000/svg">
<path d="M35 62.7084C29.5198 62.7084 24.1627 61.0834 19.6061 58.0387C15.0495 54.9941 11.498 50.6666 9.40084 45.6036C7.30366 40.5406 6.75494 34.9694 7.82408 29.5945C8.89321 24.2196 11.5322 19.2824 15.4073 15.4073C19.2823 11.5323 24.2195 8.8933 29.5944 7.82417C34.9693 6.75504 40.5405 7.30375 45.6035 9.40093C50.6666 11.4981 54.994 15.0496 58.0386 19.6062C61.0833 24.1628 62.7083 29.5199 62.7083 35.0001C62.7006 42.3464 59.7789 49.3897 54.5842 54.5843C49.3896 59.779 42.3463 62.7007 35 62.7084ZM35 10.2084C30.0967 10.2084 25.3035 11.6624 21.2265 14.3866C17.1495 17.1107 13.9719 20.9826 12.0955 25.5127C10.2191 30.0428 9.72811 35.0276 10.6847 39.8367C11.6413 44.6458 14.0025 49.0633 17.4696 52.5305C20.9368 55.9976 25.3543 58.3588 30.1634 59.3154C34.9725 60.272 39.9573 59.781 44.4874 57.9046C49.0174 56.0282 52.8894 52.8506 55.6135 48.7736C58.3377 44.6966 59.7917 39.9034 59.7917 35.0001C59.784 28.4273 57.1695 22.1259 52.5218 17.4783C47.8742 12.8306 41.5728 10.2161 35 10.2084Z" fill="#95E1D3"/>
<path d="M35 50.1959C31.9946 50.1959 29.0566 49.3047 26.5577 47.6349C24.0587 45.9652 22.111 43.5919 20.9609 40.8152C19.8108 38.0386 19.5098 34.9832 20.0962 32.0355C20.6825 29.0878 22.1298 26.3801 24.2549 24.255C26.3801 22.1298 29.0877 20.6825 32.0354 20.0962C34.9832 19.5099 38.0385 19.8108 40.8152 20.9609C43.5919 22.1111 45.9651 24.0587 47.6349 26.5577C49.3046 29.0566 50.1958 31.9946 50.1958 35C50.1881 39.0279 48.5847 42.8885 45.7366 45.7366C42.8885 48.5847 39.0278 50.1882 35 50.1959ZM35 22.7209C32.5714 22.7209 30.1974 23.441 28.1781 24.7903C26.1588 26.1395 24.5849 28.0573 23.6555 30.301C22.7262 32.5447 22.483 35.0137 22.9568 37.3956C23.4306 39.7775 24.6001 41.9654 26.3173 43.6827C28.0346 45.4 30.2225 46.5695 32.6045 47.0433C34.9864 47.5171 37.4553 47.2739 39.699 46.3445C41.9428 45.4151 43.8605 43.8413 45.2098 41.822C46.559 39.8027 47.2792 37.4286 47.2792 35C47.2715 31.7458 45.9753 28.627 43.6742 26.3259C41.3731 24.0247 38.2543 22.7286 35 22.7209Z" fill="#95E1D3"/>
<path d="M61.25 36.4584H8.75001C8.36323 36.4584 7.9923 36.3048 7.71881 36.0313C7.44532 35.7578 7.29167 35.3869 7.29167 35.0001C7.29167 34.6133 7.44532 34.2424 7.71881 33.9689C7.9923 33.6954 8.36323 33.5417 8.75001 33.5417H61.25C61.6368 33.5417 62.0077 33.6954 62.2812 33.9689C62.5547 34.2424 62.7083 34.6133 62.7083 35.0001C62.7083 35.3869 62.5547 35.7578 62.2812 36.0313C62.0077 36.3048 61.6368 36.4584 61.25 36.4584Z" fill="#95E1D3"/>
<path d="M35 62.7084C34.6132 62.7084 34.2423 62.5548 33.9688 62.2813C33.6953 62.0078 33.5417 61.6369 33.5417 61.2501V8.75008C33.5417 8.36331 33.6953 7.99237 33.9688 7.71888C34.2423 7.44539 34.6132 7.29175 35 7.29175C35.3868 7.29175 35.7577 7.44539 36.0312 7.71888C36.3047 7.99237 36.4583 8.36331 36.4583 8.75008V61.2501C36.4583 61.6369 36.3047 62.0078 36.0312 62.2813C35.7577 62.5548 35.3868 62.7084 35 62.7084Z" fill="#95E1D3"/>
</svg>
