<svg width="70" height="70" viewBox="0 0 70 70" fill="none" xmlns="http://www.w3.org/2000/svg">
<path d="M35 53.1125C34.6153 53.107 34.2484 52.9497 33.9792 52.675L17.3542 36.05C17.2175 35.9144 17.109 35.7531 17.0349 35.5754C16.9609 35.3977 16.9228 35.2071 16.9228 35.0146C16.9228 34.822 16.9609 34.6314 17.0349 34.4537C17.109 34.276 17.2175 34.1147 17.3542 33.9791L41.825 9.18748C41.9471 9.03742 42.1037 8.91923 42.2815 8.84303C42.4593 8.76683 42.653 8.7349 42.8458 8.74998H59.6167C60.0011 8.75744 60.3677 8.91349 60.6396 9.18538C60.9115 9.45726 61.0675 9.82387 61.075 10.2083L61.25 26.8041C61.2546 27 61.2181 27.1947 61.1427 27.3756C61.0673 27.5564 60.9548 27.7195 60.8125 27.8541L36.0208 52.675C35.7498 52.9471 35.384 53.1039 35 53.1125ZM20.4167 35L35 49.5833L58.3333 26.25L58.1583 11.6666H43.575L20.4167 35Z" fill="#95E1D3"/>
<path d="M43.1375 61.2499C42.7581 61.2463 42.3939 61.1006 42.1167 60.8416L9.18751 27.9124C9.05082 27.7768 8.94233 27.6156 8.86829 27.4378C8.79425 27.2601 8.75613 27.0695 8.75613 26.877C8.75613 26.6845 8.79425 26.4939 8.86829 26.3162C8.94233 26.1385 9.05082 25.9772 9.18751 25.8416C9.31844 25.7021 9.47657 25.5909 9.65215 25.5149C9.82772 25.4389 10.017 25.3997 10.2083 25.3997C10.3997 25.3997 10.589 25.4389 10.7645 25.5149C10.9401 25.5909 11.0982 25.7021 11.2292 25.8416L44.1875 58.7708C44.4566 59.0483 44.607 59.4196 44.607 59.8062C44.607 60.1927 44.4566 60.5641 44.1875 60.8416C43.8998 61.1025 43.5259 61.2479 43.1375 61.2499Z" fill="#95E1D3"/>
<path d="M20.4167 61.0749C20.0225 61.0739 19.6449 60.9165 19.3667 60.6374L9.24583 50.6624C9.0935 50.5262 8.97085 50.3601 8.88554 50.1744C8.80024 49.9887 8.7541 49.7875 8.75 49.5832C8.75 48.7957 8.75 48.679 20.4167 37.2165C20.5522 37.0798 20.7135 36.9714 20.8912 36.8973C21.069 36.8233 21.2596 36.7852 21.4521 36.7852C21.6446 36.7852 21.8352 36.8233 22.0129 36.8973C22.1906 36.9714 22.3519 37.0798 22.4875 37.2165C22.7566 37.4941 22.907 37.8654 22.907 38.2519C22.907 38.6385 22.7566 39.0098 22.4875 39.2874C19.3375 42.554 14.2917 47.5415 12.3083 49.5832L20.4167 57.5457L30.7125 47.2207C30.9871 46.9461 31.3596 46.7918 31.7479 46.7918C32.1363 46.7918 32.5087 46.9461 32.7833 47.2207C33.0579 47.4953 33.2122 47.8678 33.2122 48.2561C33.2122 48.6445 33.0579 49.0169 32.7833 49.2915L21.2917 60.6374C21.0591 60.8796 20.75 61.0341 20.4167 61.0749Z" fill="#95E1D3"/>
<path d="M35 36.4583C34.8087 36.4607 34.6191 36.4229 34.4433 36.3476C34.2675 36.2722 34.1094 36.1609 33.9792 36.0208C33.8397 35.8899 33.7285 35.7318 33.6525 35.5562C33.5764 35.3806 33.5372 35.1913 33.5372 35C33.5372 34.8087 33.5764 34.6194 33.6525 34.4438C33.7285 34.2682 33.8397 34.1101 33.9792 33.9792L45.6458 22.3125C45.7799 22.1784 45.939 22.0721 46.1142 21.9995C46.2893 21.927 46.4771 21.8896 46.6667 21.8896C46.8562 21.8896 47.044 21.927 47.2191 21.9995C47.3943 22.0721 47.5534 22.1784 47.6875 22.3125C47.8216 22.4465 47.9279 22.6057 48.0004 22.7809C48.073 22.956 48.1103 23.1437 48.1103 23.3333C48.1103 23.5229 48.073 23.7106 48.0004 23.8858C47.9279 24.061 47.8216 24.2201 47.6875 24.3542L36.0208 36.0208C35.8906 36.1609 35.7325 36.2722 35.5567 36.3476C35.3809 36.4229 35.1913 36.4607 35 36.4583Z" fill="#95E1D3"/>
</svg>
