<svg width="70" height="70" viewBox="0 0 70 70" fill="none" xmlns="http://www.w3.org/2000/svg">
<path d="M51.0417 61.25H18.9583C16.2509 61.25 13.6544 60.1745 11.74 58.2601C9.82552 56.3456 8.75 53.7491 8.75 51.0417V18.9583C8.75 16.2509 9.82552 13.6544 11.74 11.74C13.6544 9.82552 16.2509 8.75 18.9583 8.75H51.0417C53.7491 8.75 56.3456 9.82552 58.2601 11.74C60.1745 13.6544 61.25 16.2509 61.25 18.9583V51.0417C61.25 53.7491 60.1745 56.3456 58.2601 58.2601C56.3456 60.1745 53.7491 61.25 51.0417 61.25ZM18.9583 11.6667C17.0245 11.6667 15.1698 12.4349 13.8023 13.8023C12.4349 15.1698 11.6667 17.0245 11.6667 18.9583V51.0417C11.6667 52.9755 12.4349 54.8302 13.8023 56.1977C15.1698 57.5651 17.0245 58.3333 18.9583 58.3333H51.0417C52.9755 58.3333 54.8302 57.5651 56.1977 56.1977C57.5651 54.8302 58.3333 52.9755 58.3333 51.0417V18.9583C58.3333 17.0245 57.5651 15.1698 56.1977 13.8023C54.8302 12.4349 52.9755 11.6667 51.0417 11.6667H18.9583Z" fill="#95E1D3"/>
<path d="M10.2083 49.0292C9.99583 49.0315 9.78562 48.9855 9.59359 48.8945C9.40156 48.8036 9.23276 48.6701 9.09997 48.5042C8.97489 48.3598 8.88003 48.1918 8.82099 48.0101C8.76196 47.8284 8.73994 47.6368 8.75626 47.4464C8.77257 47.2561 8.82688 47.0709 8.91598 46.902C9.00507 46.733 9.12714 46.5835 9.27497 46.4625L22.9833 35C25.0623 33.276 27.7398 32.4461 30.4294 32.6921C33.119 32.9381 35.6015 34.24 37.3333 36.3125L40.6 40.2209C41.2201 40.9681 41.9838 41.5834 42.8459 42.0304C43.708 42.4773 44.651 42.7468 45.6191 42.8229C46.5872 42.8991 47.5607 42.7803 48.4821 42.4736C49.4034 42.167 50.2539 41.6786 50.9833 41.0375L58.8291 34.1834C59.1252 33.933 59.5074 33.8081 59.8942 33.8353C60.281 33.8626 60.6419 34.0398 60.9 34.3292C61.0267 34.4718 61.1237 34.6382 61.1851 34.8188C61.2465 34.9994 61.2712 35.1905 61.2576 35.3808C61.244 35.5711 61.1924 35.7567 61.106 35.9267C61.0195 36.0968 60.8999 36.2478 60.7541 36.3709L52.9083 43.225C51.8858 44.1287 50.6921 44.8176 49.398 45.2508C48.104 45.6839 46.7361 45.8524 45.3756 45.7463C44.0151 45.6402 42.6899 45.2616 41.4787 44.633C40.2674 44.0045 39.195 43.1389 38.325 42.0875L35 38.2667C34.3896 37.5325 33.6403 36.9258 32.7952 36.4815C31.9501 36.0371 31.0256 35.7638 30.0748 35.6771C29.1239 35.5904 28.1652 35.6921 27.2537 35.9763C26.3421 36.2605 25.4956 36.7216 24.7625 37.3334L11.0541 48.7084C10.8096 48.8957 10.5156 49.0073 10.2083 49.0292Z" fill="#95E1D3"/>
</svg>
