<svg width="70" height="70" viewBox="0 0 70 70" fill="none" xmlns="http://www.w3.org/2000/svg">
<path d="M30.1583 51.1876C29.863 51.1934 29.5725 51.1111 29.3241 50.9512C29.0757 50.7913 28.8805 50.5611 28.7634 50.2898C28.6464 50.0186 28.6127 49.7186 28.6668 49.4282C28.7208 49.1378 28.8602 48.87 29.067 48.659C29.2738 48.4481 29.5388 48.3035 29.8281 48.2437C30.1174 48.1839 30.418 48.2116 30.6915 48.3233C30.965 48.4349 31.199 48.6255 31.3638 48.8707C31.5286 49.116 31.6166 49.4047 31.6167 49.7001C31.6167 50.0896 31.464 50.4636 31.1913 50.7417C30.9187 51.0199 30.5478 51.18 30.1583 51.1876Z" fill="#95E1D3"/>
<path d="M40.8625 51.1877C41.6679 51.1877 42.3208 50.5347 42.3208 49.7293C42.3208 48.9239 41.6679 48.271 40.8625 48.271C40.0571 48.271 39.4042 48.9239 39.4042 49.7293C39.4042 50.5347 40.0571 51.1877 40.8625 51.1877Z" fill="#95E1D3"/>
<path d="M41.6209 62.65H28.3792C24.9446 62.65 21.6508 61.2856 19.2222 58.857C16.7936 56.4284 15.4292 53.1346 15.4292 49.7C15.4292 46.2654 16.7936 42.9716 19.2222 40.543C21.6508 38.1144 24.9446 36.75 28.3792 36.75H41.6209C45.0554 36.75 48.3493 38.1144 50.7779 40.543C53.2065 42.9716 54.5709 46.2654 54.5709 49.7C54.5709 53.1346 53.2065 56.4284 50.7779 58.857C48.3493 61.2856 45.0554 62.65 41.6209 62.65ZM28.3792 39.6667C27.0616 39.6667 25.7569 39.9262 24.5396 40.4304C23.3223 40.9346 22.2162 41.6737 21.2846 42.6054C20.3529 43.537 19.6138 44.6431 19.1096 45.8604C18.6054 47.0777 18.3459 48.3824 18.3459 49.7C18.3459 51.0176 18.6054 52.3223 19.1096 53.5396C19.6138 54.7569 20.3529 55.863 21.2846 56.7946C22.2162 57.7263 23.3223 58.4654 24.5396 58.9696C25.7569 59.4738 27.0616 59.7333 28.3792 59.7333H41.6209C44.2819 59.7333 46.8339 58.6763 48.7155 56.7946C50.5971 54.913 51.6542 52.361 51.6542 49.7C51.6542 47.039 50.5971 44.487 48.7155 42.6054C46.8339 40.7237 44.2819 39.6667 41.6209 39.6667H28.3792Z" fill="#95E1D3"/>
<path d="M58.3334 43.9251H50.5167C50.1299 43.9251 49.759 43.7714 49.4855 43.498C49.212 43.2245 49.0584 42.8535 49.0584 42.4668C49.0584 42.08 49.212 41.7091 49.4855 41.4356C49.759 41.1621 50.1299 41.0084 50.5167 41.0084H58.3334C59.7388 41.0008 61.0846 40.439 62.0785 39.4452C63.0723 38.4513 63.634 37.1056 63.6417 35.7001C63.634 28.9622 60.9559 22.502 56.1942 17.7348C51.4325 12.9677 44.9754 10.2822 38.2375 10.2668H32.0834C25.3404 10.2745 18.8758 12.9565 14.1078 17.7245C9.3398 22.4925 6.65774 28.9571 6.65002 35.7001C6.65768 37.1056 7.21941 38.4513 8.21326 39.4452C9.20711 40.439 10.5529 41.0008 11.9584 41.0084H19.4834C19.8701 41.0084 20.2411 41.1621 20.5146 41.4356C20.788 41.7091 20.9417 42.08 20.9417 42.4668C20.9417 42.8535 20.788 43.2245 20.5146 43.498C20.2411 43.7714 19.8701 43.9251 19.4834 43.9251H11.8125C9.63112 43.9251 7.53906 43.0585 5.99657 41.516C4.45408 39.9736 3.58752 37.8815 3.58752 35.7001C3.59133 31.9659 4.33206 28.2692 5.76725 24.8218C7.20245 21.3744 9.30388 18.2442 11.9511 15.6105C14.5984 12.9768 17.7393 10.8915 21.194 9.47398C24.6487 8.05649 28.3492 7.33474 32.0834 7.35009H38.2375C45.7439 7.36551 52.9385 10.3543 58.2463 15.6621C63.5542 20.9699 66.5429 28.1645 66.5584 35.6709C66.5584 37.855 65.6927 39.9501 64.1511 41.4972C62.6094 43.0443 60.5174 43.9174 58.3334 43.9251Z" fill="#95E1D3"/>
<path d="M9.24588 35.9627C7.6531 35.9379 6.07947 35.6113 4.60838 35.0002C4.43017 34.9295 4.26765 34.8243 4.13012 34.6907C3.9926 34.5571 3.88276 34.3977 3.80691 34.2216C3.73105 34.0455 3.69067 33.8562 3.68806 33.6645C3.68545 33.4728 3.72068 33.2825 3.79172 33.1044C3.85597 32.9247 3.95627 32.7601 4.08647 32.6206C4.21666 32.4811 4.37399 32.3697 4.5488 32.2932C4.72362 32.2167 4.91222 32.1768 5.10303 32.1758C5.29383 32.1749 5.48282 32.213 5.65838 32.2877C6.80386 32.7262 8.01934 32.9535 9.24588 32.9585C11.2595 32.9444 13.2163 32.2893 14.8326 31.0884C16.4489 29.8874 17.6408 28.2029 18.2355 26.2791C18.8302 24.3553 18.7968 22.2921 18.1401 20.3885C17.4835 18.4849 16.2377 16.8399 14.5834 15.6919C14.3145 15.4571 14.1411 15.132 14.0959 14.7779C14.0508 14.4239 14.137 14.0656 14.3383 13.7709C14.5395 13.4762 14.8419 13.2655 15.1881 13.1787C15.5343 13.092 15.9002 13.1352 16.2167 13.3002C18.4139 14.7868 20.0761 16.939 20.9592 19.4405C21.8423 21.942 21.8996 24.6608 21.1226 27.1973C20.3457 29.7338 18.7755 31.9541 16.6429 33.5319C14.5103 35.1097 11.9278 35.9617 9.27505 35.9627H9.24588Z" fill="#95E1D3"/>
<path d="M64.925 35.9043C60.3673 35.5595 56.107 33.5098 52.9933 30.1637C49.8796 26.8175 48.1413 22.4209 48.125 17.8502C48.1189 15.6459 48.5244 13.4598 49.3208 11.4043C49.3916 11.2261 49.4967 11.0636 49.6303 10.9261C49.7639 10.7886 49.9233 10.6787 50.0994 10.6029C50.2755 10.527 50.4648 10.4866 50.6565 10.484C50.8482 10.4814 51.0386 10.5166 51.2167 10.5877C51.3963 10.6519 51.561 10.7522 51.7005 10.8824C51.84 11.0126 51.9514 11.17 52.0279 11.3448C52.1043 11.5196 52.1443 11.7082 52.1452 11.899C52.1462 12.0898 52.1081 12.2788 52.0333 12.4543C51.22 14.6531 50.9265 17.0103 51.1757 19.3414C51.4249 21.6725 52.21 23.9144 53.4698 25.8915C54.7295 27.8687 56.4297 29.5276 58.4372 30.7384C60.4447 31.9492 62.7051 32.6791 65.0417 32.871C65.4284 32.871 65.7994 33.0247 66.0729 33.2981C66.3464 33.5716 66.5 33.9426 66.5 34.3293C66.5 34.7161 66.3464 35.087 66.0729 35.3605C65.7994 35.634 65.4284 35.7877 65.0417 35.7877L64.925 35.9043Z" fill="#95E1D3"/>
</svg>
