<svg width="386" height="354" viewBox="0 0 386 354" fill="none" xmlns="http://www.w3.org/2000/svg">
<rect x="16" y="16" width="370" height="338" fill="#95E1D3"/>
<rect width="370" height="338" fill="url(#paint0_linear_789_4393)" fill-opacity="0.9"/>
<path d="M185.417 149C183.604 149 181.831 148.462 180.324 147.455C178.816 146.448 177.642 145.016 176.948 143.341C176.254 141.666 176.072 139.823 176.426 138.045C176.78 136.267 177.653 134.633 178.935 133.351C180.217 132.069 181.85 131.196 183.628 130.843C185.407 130.489 187.25 130.67 188.925 131.364C190.6 132.058 192.031 133.233 193.038 134.74C194.046 136.248 194.583 138.02 194.583 139.833C194.579 142.263 193.612 144.592 191.894 146.31C190.175 148.028 187.846 148.995 185.417 149ZM185.417 132.333C183.933 132.333 182.483 132.773 181.25 133.597C180.017 134.421 179.055 135.593 178.488 136.963C177.92 138.333 177.771 139.841 178.061 141.296C178.35 142.751 179.064 144.088 180.113 145.136C181.162 146.185 182.499 146.9 183.953 147.189C185.408 147.478 186.916 147.33 188.287 146.762C189.657 146.195 190.829 145.233 191.653 144C192.477 142.767 192.917 141.317 192.917 139.833C192.912 137.845 192.121 135.94 190.715 134.535C189.31 133.129 187.404 132.338 185.417 132.333V132.333Z" fill="white"/>
<path d="M170.417 162.333C170.196 162.333 169.984 162.245 169.827 162.089C169.671 161.933 169.583 161.721 169.583 161.5C169.588 157.744 171.082 154.143 173.738 151.487C176.393 148.831 179.994 147.337 183.75 147.333H187.083C187.304 147.333 187.516 147.421 187.673 147.577C187.829 147.733 187.917 147.945 187.917 148.166C187.917 148.387 187.829 148.599 187.673 148.756C187.516 148.912 187.304 149 187.083 149H183.75C180.435 149 177.255 150.317 174.911 152.661C172.567 155.005 171.25 158.184 171.25 161.5C171.25 161.721 171.162 161.933 171.006 162.089C170.85 162.245 170.638 162.333 170.417 162.333Z" fill="white"/>
<path d="M192.917 167.333C192.696 167.333 192.484 167.245 192.327 167.089C192.171 166.933 192.083 166.721 192.083 166.5V153.166C192.083 152.945 192.171 152.733 192.327 152.577C192.484 152.421 192.696 152.333 192.917 152.333C193.138 152.333 193.35 152.421 193.506 152.577C193.662 152.733 193.75 152.945 193.75 153.166V166.5C193.75 166.721 193.662 166.933 193.506 167.089C193.35 167.245 193.138 167.333 192.917 167.333Z" fill="white"/>
<path d="M199.583 160.667H186.25C186.029 160.667 185.817 160.579 185.661 160.423C185.504 160.266 185.417 160.054 185.417 159.833C185.417 159.612 185.504 159.4 185.661 159.244C185.817 159.088 186.029 159 186.25 159H199.583C199.804 159 200.016 159.088 200.173 159.244C200.329 159.4 200.417 159.612 200.417 159.833C200.417 160.054 200.329 160.266 200.173 160.423C200.016 160.579 199.804 160.667 199.583 160.667Z" fill="white"/>
<path d="M122.13 207.536C121.73 207.088 121.114 206.68 120.282 206.312C119.45 205.944 118.522 205.76 117.498 205.76C116.186 205.76 115.218 206.008 114.594 206.504C113.97 207 113.658 207.68 113.658 208.544C113.658 209.152 113.818 209.632 114.138 209.984C114.458 210.336 114.946 210.624 115.602 210.848C116.274 211.072 117.122 211.304 118.146 211.544C119.33 211.8 120.354 212.112 121.218 212.48C122.082 212.848 122.746 213.344 123.21 213.968C123.674 214.576 123.906 215.392 123.906 216.416C123.906 217.504 123.634 218.4 123.09 219.104C122.546 219.808 121.802 220.328 120.858 220.664C119.93 221 118.882 221.168 117.714 221.168C115.058 221.168 112.746 220.368 110.778 218.768L111.81 216.944C112.162 217.296 112.634 217.648 113.226 218C113.834 218.352 114.522 218.648 115.29 218.888C116.074 219.112 116.898 219.224 117.762 219.224C118.978 219.224 119.922 219.008 120.594 218.576C121.266 218.128 121.602 217.48 121.602 216.632C121.602 215.992 121.41 215.48 121.026 215.096C120.658 214.712 120.106 214.392 119.37 214.136C118.634 213.88 117.738 213.624 116.682 213.368C115.53 213.08 114.562 212.768 113.778 212.432C112.994 212.08 112.402 211.624 112.002 211.064C111.618 210.504 111.426 209.776 111.426 208.88C111.426 207.792 111.69 206.872 112.218 206.12C112.746 205.368 113.474 204.8 114.402 204.416C115.33 204.032 116.378 203.84 117.546 203.84C118.682 203.84 119.714 204.016 120.642 204.368C121.586 204.72 122.418 205.192 123.138 205.784L122.13 207.536ZM133.779 221.12C132.419 221.12 131.275 220.888 130.347 220.424C129.419 219.944 128.675 219.304 128.115 218.504C127.555 217.688 127.147 216.768 126.891 215.744C126.635 214.72 126.507 213.664 126.507 212.576V203.96H128.667V212.576C128.667 213.408 128.747 214.224 128.907 215.024C129.083 215.808 129.363 216.512 129.747 217.136C130.131 217.76 130.651 218.256 131.307 218.624C131.963 218.992 132.779 219.176 133.755 219.176C134.747 219.176 135.571 218.992 136.227 218.624C136.883 218.24 137.403 217.736 137.787 217.112C138.171 216.472 138.443 215.76 138.603 214.976C138.779 214.192 138.867 213.392 138.867 212.576V203.96H141.027V212.576C141.027 213.728 140.891 214.824 140.619 215.864C140.363 216.888 139.947 217.792 139.371 218.576C138.795 219.36 138.043 219.984 137.115 220.448C136.203 220.896 135.091 221.12 133.779 221.12ZM144.864 221V203.96H151.968C152.72 203.96 153.408 204.12 154.032 204.44C154.656 204.744 155.2 205.16 155.664 205.688C156.128 206.2 156.488 206.784 156.744 207.44C157 208.08 157.128 208.736 157.128 209.408C157.128 210.336 156.92 211.224 156.504 212.072C156.088 212.904 155.504 213.584 154.752 214.112C154 214.624 153.12 214.88 152.112 214.88H147.024V221H144.864ZM147.024 212.96H151.992C152.584 212.96 153.096 212.8 153.528 212.48C153.976 212.16 154.32 211.728 154.56 211.184C154.816 210.64 154.944 210.048 154.944 209.408C154.944 208.736 154.8 208.136 154.512 207.608C154.224 207.064 153.848 206.64 153.384 206.336C152.92 206.032 152.408 205.88 151.848 205.88H147.024V212.96ZM171.385 219.08V221H159.817V203.96H171.169V205.88H161.977V211.4H169.969V213.2H161.977V219.08H171.385ZM174.349 221V203.96H181.645C182.397 203.96 183.085 204.12 183.709 204.44C184.333 204.744 184.877 205.16 185.341 205.688C185.805 206.2 186.165 206.784 186.421 207.44C186.677 208.08 186.805 208.736 186.805 209.408C186.805 210.192 186.653 210.936 186.349 211.64C186.061 212.344 185.645 212.944 185.101 213.44C184.573 213.936 183.949 214.28 183.229 214.472L187.357 221H184.909L181.021 214.88H176.509V221H174.349ZM176.509 212.96H181.669C182.261 212.96 182.773 212.8 183.205 212.48C183.653 212.144 183.997 211.704 184.237 211.16C184.493 210.616 184.621 210.032 184.621 209.408C184.621 208.768 184.477 208.184 184.189 207.656C183.901 207.112 183.525 206.68 183.061 206.36C182.597 206.04 182.085 205.88 181.525 205.88H176.509V212.96ZM207.754 205.88H201.874V221H199.714V205.88H193.834V203.96H207.754V205.88ZM221.776 219.08V221H210.208V203.96H221.56V205.88H212.368V211.4H220.36V213.2H212.368V219.08H221.776ZM229.923 203.96H231.747L238.707 221H236.403L234.387 216.008H227.235L225.243 221H222.939L229.923 203.96ZM233.907 214.328L230.835 206.456L227.667 214.328H233.907ZM255.717 221V207.992L250.101 218H248.781L243.141 207.992V221H240.981V203.96H243.261L249.429 215.024L255.621 203.96H257.877V221H255.717Z" fill="white"/>
<defs>
<linearGradient id="paint0_linear_789_4393" x1="185" y1="338" x2="185" y2="-2.05738e-06" gradientUnits="userSpaceOnUse">
<stop stop-color="#EDD789"/>
<stop offset="1" stop-color="#E98283"/>
</linearGradient>
</defs>
</svg>
