<svg width="170" height="171" viewBox="0 0 170 171" fill="none" xmlns="http://www.w3.org/2000/svg">
<rect x="1" y="1.375" width="168" height="168" stroke="#95E1D3" stroke-width="2"/>
<path d="M89.5 119.708C83.8307 119.713 78.2432 118.356 73.2083 115.75C72.9648 115.624 72.7485 115.452 72.5717 115.242C72.3949 115.033 72.2611 114.79 72.1779 114.529C72.0947 114.268 72.0638 113.993 72.0869 113.72C72.11 113.447 72.1866 113.181 72.3125 112.938C72.4383 112.694 72.6109 112.478 72.8204 112.301C73.0298 112.124 73.272 111.99 73.5332 111.907C73.7944 111.824 74.0694 111.793 74.3425 111.816C74.6156 111.839 74.8815 111.916 75.125 112.042C81.8687 115.473 89.6261 116.347 96.9645 114.504C104.303 112.661 110.727 108.225 115.049 102.015C119.372 95.8053 121.301 88.241 120.481 80.7193C119.662 73.1975 116.148 66.2266 110.589 61.0937C105.03 55.9609 97.801 53.013 90.2379 52.7944C82.6747 52.5758 75.288 55.1013 69.4418 59.9045C63.5956 64.7076 59.6849 71.464 58.4319 78.9258C57.1789 86.3876 58.6683 94.0508 62.625 100.5C62.9041 100.977 62.9862 101.544 62.854 102.081C62.7217 102.618 62.3855 103.082 61.9167 103.375C61.6818 103.519 61.4207 103.614 61.1486 103.656C60.8765 103.699 60.5988 103.686 60.3314 103.621C60.0641 103.555 59.8124 103.436 59.5911 103.273C59.3697 103.109 59.1829 102.903 59.0417 102.667C54.4692 95.3445 52.7284 86.6044 54.1466 78.0891C55.5648 69.5737 60.0443 61.8695 66.7431 56.4245C73.4419 50.9795 81.8988 48.1686 90.5242 48.5201C99.1497 48.8716 107.35 52.3613 113.583 58.3334C118.397 62.7953 121.877 68.5071 123.633 74.8314C125.389 81.1558 125.354 87.8438 123.53 94.149C121.706 100.454 118.166 106.129 113.305 110.539C108.444 114.949 102.452 117.922 96 119.125C93.8566 119.524 91.6802 119.719 89.5 119.708V119.708Z" fill="#95E1D3"/>
<path d="M57.1667 121.875C56.359 121.86 55.5675 121.646 54.8622 121.252C54.1569 120.858 53.5595 120.296 53.1228 119.617C52.6862 118.937 52.4238 118.16 52.3587 117.355C52.2937 116.55 52.4281 115.741 52.75 115L59.0833 100.75C59.3191 100.245 59.7438 99.8528 60.266 99.6579C60.7882 99.4631 61.366 99.4812 61.875 99.7084C62.3771 99.9357 62.7686 100.353 62.9638 100.868C63.1591 101.384 63.1421 101.955 62.9167 102.458L56.5417 116.708C56.4605 116.817 56.4167 116.948 56.4167 117.083C56.4167 117.219 56.4605 117.35 56.5417 117.458C56.6327 117.563 56.7522 117.638 56.8855 117.675C57.0188 117.712 57.16 117.709 57.2917 117.667L73.3333 111.958C73.59 111.86 73.8641 111.814 74.139 111.824C74.4138 111.833 74.6839 111.899 74.933 112.015C75.182 112.132 75.4049 112.298 75.5883 112.503C75.7716 112.708 75.9117 112.948 76 113.208C76.1876 113.728 76.1614 114.3 75.927 114.8C75.6926 115.3 75.2692 115.687 74.75 115.875L58.8333 121.583C58.3002 121.781 57.7353 121.88 57.1667 121.875Z" fill="#95E1D3"/>
</svg>
